<svg width="32" height="36" viewBox="0 0 32 36" fill="none" xmlns="http://www.w3.org/2000/svg">
<path d="M0.25 14.5C0.25 13.1076 0.803124 11.7723 1.78769 10.7877C2.77226 9.80312 4.10761 9.25 5.5 9.25H26.5C27.8924 9.25 29.2277 9.80312 30.2123 10.7877C31.1969 11.7723 31.75 13.1076 31.75 14.5V30.25C31.75 31.6424 31.1969 32.9778 30.2123 33.9623C29.2277 34.9469 27.8924 35.5 26.5 35.5H5.5C4.10761 35.5 2.77226 34.9469 1.78769 33.9623C0.803124 32.9778 0.25 31.6424 0.25 30.25V14.5ZM5.5 12.75C5.03587 12.75 4.59075 12.9344 4.26256 13.2626C3.93437 13.5908 3.75 14.0359 3.75 14.5V30.25C3.75 30.7141 3.93437 31.1593 4.26256 31.4874C4.59075 31.8156 5.03587 32 5.5 32H26.5C26.9641 32 27.4092 31.8156 27.7374 31.4874C28.0656 31.1593 28.25 30.7141 28.25 30.25V14.5C28.25 14.0359 28.0656 13.5908 27.7374 13.2626C27.4092 12.9344 26.9641 12.75 26.5 12.75H5.5Z" fill="black"/>
<path d="M16 4C14.6076 4 13.2723 4.55312 12.2877 5.53769C11.3031 6.52225 10.75 7.85761 10.75 9.25V16.25C10.75 16.7141 10.5656 17.1592 10.2374 17.4874C9.90925 17.8156 9.46413 18 9 18C8.53587 18 8.09075 17.8156 7.76256 17.4874C7.43437 17.1592 7.25 16.7141 7.25 16.25V9.25C7.25 6.92935 8.17187 4.70376 9.81282 3.06282C11.4538 1.42187 13.6794 0.5 16 0.5C18.3206 0.5 20.5462 1.42187 22.1872 3.06282C23.8281 4.70376 24.75 6.92935 24.75 9.25V16.25C24.75 16.7141 24.5656 17.1592 24.2374 17.4874C23.9092 17.8156 23.4641 18 23 18C22.5359 18 22.0908 17.8156 21.7626 17.4874C21.4344 17.1592 21.25 16.7141 21.25 16.25V9.25C21.25 7.85761 20.6969 6.52225 19.7123 5.53769C18.7277 4.55312 17.3924 4 16 4V4Z" fill="black"/>
</svg>
