<svg width="40" height="40" viewBox="0 0 40 40" fill="none" xmlns="http://www.w3.org/2000/svg">
<path d="M27.5651 19.5632L27.5459 19.6136C27.5519 19.5984 27.5567 19.5828 27.5627 19.5676L27.5651 19.5632V19.5632Z" fill="black"/>
<path d="M20.0008 0C13.4096 0 8 5.392 8 11.9688C8 14.5176 8.816 16.8928 10.192 18.8384L10.1428 18.7616L17.8252 32.0408L17.864 32.0916C18.1736 32.4956 18.48 32.8212 18.8508 33.0664C19.2216 33.3116 19.6964 33.4664 20.1628 33.4196C21.0948 33.326 21.6364 32.682 22.1368 32.0036L22.168 31.9616L30.6376 17.548L30.6444 17.536C30.8472 17.17 30.994 16.8008 31.1196 16.4432C31.7004 15.0229 31.9995 13.5032 32 11.9688C32 5.392 26.592 0 20.0008 0ZM20.0008 2C25.5024 2 30 6.4872 30 11.9688C30.0004 13.2491 29.7503 14.5172 29.264 15.7016L29.254 15.7264L29.2452 15.7524C29.14 16.0552 29.0256 16.33 28.8936 16.5684L20.51 30.8348C20.1392 31.3232 19.88 31.4388 19.9632 31.43C20.006 31.426 20.0456 31.4596 19.954 31.3988C19.8664 31.3408 19.6876 31.1708 19.4756 30.9004L11.852 17.72L11.8252 17.6828C10.676 16.0588 10 14.092 10 11.9688C10 6.4876 14.4992 2 20.0008 2ZM20.0008 5.14C16.216 5.14 13.1548 8.1904 13.1548 11.9688C13.1548 15.7472 16.2164 18.7976 20.0008 18.7976C23.7852 18.7976 26.8452 15.7468 26.8452 11.9688C26.8452 8.1904 23.7852 5.14 20.0008 5.14V5.14ZM20.0008 7.14C22.7276 7.14 24.8452 9.254 24.8452 11.9688C24.8452 14.6836 22.728 16.7976 20.0008 16.7976C17.2736 16.7976 15.1548 14.6832 15.1548 11.9688C15.1548 9.254 17.274 7.14 20.0008 7.14V7.14Z" fill="black"/>
<path d="M13.6024 27.6228C7.952 28.4212 4 30.3312 4 33.1428C4 36.93 10.6032 40 20 40C29.3968 40 36 36.93 36 33.1428C36 30.3312 32.0484 28.4212 26.3984 27.6228L25.6156 28.9556C29.874 29.5464 32.8 30.788 32.8 32.2288C32.8 34.2488 27.0692 35.886 20 35.886C12.9308 35.886 7.2 34.2488 7.2 32.2288C7.1996 30.7928 10.1064 29.5524 14.378 28.9592C14.12 28.5136 13.8604 28.0688 13.602 27.6228H13.6024Z" fill="black"/>
</svg>
