<svg width="35" height="33" viewBox="0 0 35 33" fill="none" xmlns="http://www.w3.org/2000/svg">
<g clip-path="url(#clip0_1_30)">
<path d="M7 31.5V32.5862H9.33333V31.5H7ZM25.6667 31.5V32.5862H28V31.5H25.6667ZM9.33333 31.5V27.1552H7V31.5H9.33333ZM15.1667 21.7241H19.8333V19.5517H15.1667V21.7241ZM25.6667 27.1552V31.5H28V27.1552H25.6667ZM19.8333 21.7241C21.3804 21.7241 22.8642 22.2963 23.9581 23.3149C25.0521 24.3334 25.6667 25.7148 25.6667 27.1552H28C28 25.1386 27.1396 23.2046 25.608 21.7787C24.0765 20.3528 21.9993 19.5517 19.8333 19.5517V21.7241ZM9.33333 27.1552C9.33333 25.7148 9.94791 24.3334 11.0419 23.3149C12.1358 22.2963 13.6196 21.7241 15.1667 21.7241V19.5517C13.0007 19.5517 10.9235 20.3528 9.39196 21.7787C7.86041 23.2046 7 25.1386 7 27.1552H9.33333ZM17.5 6.51724C15.9529 6.51724 14.4692 7.08944 13.3752 8.10795C12.2812 9.12647 11.6667 10.5079 11.6667 11.9483H14C14 11.084 14.3687 10.2552 15.0251 9.64408C15.6815 9.03297 16.5717 8.68966 17.5 8.68966V6.51724ZM23.3333 11.9483C23.3333 10.5079 22.7188 9.12647 21.6248 8.10795C20.5308 7.08944 19.0471 6.51724 17.5 6.51724V8.68966C18.4283 8.68966 19.3185 9.03297 19.9749 9.64408C20.6313 10.2552 21 11.084 21 11.9483H23.3333ZM17.5 17.3793C19.0471 17.3793 20.5308 16.8071 21.6248 15.7886C22.7188 14.7701 23.3333 13.3887 23.3333 11.9483H21C21 12.8125 20.6313 13.6414 19.9749 14.2525C19.3185 14.8636 18.4283 15.2069 17.5 15.2069V17.3793ZM17.5 15.2069C16.5717 15.2069 15.6815 14.8636 15.0251 14.2525C14.3687 13.6414 14 12.8125 14 11.9483H11.6667C11.6667 13.3887 12.2812 14.7701 13.3752 15.7886C14.4692 16.8071 15.9529 17.3793 17.5 17.3793V15.2069ZM3.5 2.17241H31.5V0H3.5V2.17241ZM32.6667 3.25862V29.3276H35V3.25862H32.6667ZM31.5 30.4138H3.5V32.5862H31.5V30.4138ZM2.33333 29.3276V3.25862H0V29.3276H2.33333ZM3.5 30.4138C3.19058 30.4138 2.89383 30.2994 2.67504 30.0957C2.45625 29.8919 2.33333 29.6157 2.33333 29.3276H0C0 30.1918 0.368749 31.0207 1.02513 31.6318C1.6815 32.2429 2.57174 32.5862 3.5 32.5862V30.4138ZM32.6667 29.3276C32.6667 29.6157 32.5438 29.8919 32.325 30.0957C32.1062 30.2994 31.8094 30.4138 31.5 30.4138V32.5862C32.4283 32.5862 33.3185 32.2429 33.9749 31.6318C34.6313 31.0207 35 30.1918 35 29.3276H32.6667ZM31.5 2.17241C31.8094 2.17241 32.1062 2.28685 32.325 2.49056C32.5438 2.69426 32.6667 2.97054 32.6667 3.25862H35C35 2.39438 34.6313 1.56554 33.9749 0.954428C33.3185 0.343318 32.4283 0 31.5 0V2.17241ZM3.5 0C2.57174 0 1.6815 0.343318 1.02513 0.954428C0.368749 1.56554 0 2.39438 0 3.25862H2.33333C2.33333 2.97054 2.45625 2.69426 2.67504 2.49056C2.89383 2.28685 3.19058 2.17241 3.5 2.17241V0Z" fill="black"/>
</g>
<rect x="1.5" y="1.5" width="32" height="29.5862" rx="3.5" stroke="black" stroke-width="3"/>
<defs>
<clipPath id="clip0_1_30">
<rect width="35" height="32.5862" rx="5" fill="white"/>
</clipPath>
</defs>
</svg>
