<svg width="40" height="35" viewBox="0 0 40 35" fill="none" xmlns="http://www.w3.org/2000/svg">
<path d="M27.4745 17.4419L37.7266 5.75564V28.9947L27.4745 17.4419ZM14.2639 19.4209L17.8641 23.5212C18.4291 24.151 19.1658 24.5315 19.9708 24.5315H19.9992H19.9975H20.0208C20.8275 24.5315 21.5642 24.1488 22.1359 23.5146L22.1309 23.519L25.7311 19.4187L36.6749 31.7501H3.32514L14.2639 19.4209ZM3.31014 2.98497H36.6949L20.6592 21.2578C20.4789 21.4449 20.2557 21.5467 20.0258 21.5465H20.0025H20.0042H19.9808C19.7501 21.5469 19.5262 21.4443 19.3458 21.2557L19.3475 21.2578L3.31014 2.98497ZM2.27509 5.75346L12.5255 17.4397L2.27509 28.986V5.75346ZM38.2766 0.415491C37.8766 0.153076 37.4066 0 36.9082 0H3.09846C2.61538 0.000151403 2.13893 0.147632 1.70674 0.430799L1.72507 0.419864C1.20767 0.754688 0.771945 1.27267 0.46711 1.91529C0.162274 2.55792 0.000478934 3.29958 0 4.05651L0 30.6742C0.000882376 31.7514 0.327434 32.7842 0.908005 33.5459C1.48858 34.3076 2.27575 34.7361 3.0968 34.7372H36.9032C37.7243 34.7361 38.5114 34.3076 39.092 33.5459C39.6726 32.7842 39.9991 31.7514 40 30.6742V4.06525V4.05651C40 2.46671 39.3016 1.08902 38.2849 0.426425L38.2666 0.415491H38.2766Z" fill="black"/>
</svg>
