<svg width="47" height="20" viewBox="0 0 47 20" fill="none" xmlns="http://www.w3.org/2000/svg">
<path d="M46.12 16.1111L40.68 10L46.0133 4.01111C46.305 3.68348 46.4888 3.28642 46.5431 2.86646C46.5975 2.44651 46.5201 2.02106 46.32 1.63999C46.1173 1.21288 45.7813 0.850311 45.3542 0.598004C44.9271 0.345697 44.428 0.21494 43.92 0.222216H2.58667C2.25222 0.217363 1.92001 0.272952 1.60901 0.385806C1.298 0.498661 1.0143 0.666571 0.774095 0.879947C0.533893 1.09332 0.341898 1.34798 0.209078 1.62939C0.0762569 1.91079 0.0052118 2.21342 0 2.51999L0 17.4922C0.0140143 18.1092 0.294002 18.6961 0.778733 19.1244C1.26346 19.5527 1.91349 19.7876 2.58667 19.7778H44.0667C44.5577 19.7853 45.0409 19.6639 45.459 19.4278C45.8772 19.1917 46.213 18.8509 46.4267 18.4456C46.6185 18.069 46.6915 17.6508 46.6373 17.2382C46.5831 16.8255 46.4039 16.4351 46.12 16.1111V16.1111ZM2.66667 17.3333V2.66666H43.7067L37.2533 9.91444L43.8 17.3333H2.66667Z" fill="black"/>
<path d="M12.5203 11.65L8.17366 6.33331H6.66699V13.8867H8.17366V8.5822L12.5203 13.8867H14.0137V6.33331H12.5203V11.65Z" fill="black"/>
<path d="M16.2402 13.8867H22.4536V12.64H17.7469V10.6722H22.0002V9.41332H17.7469V7.5922H22.4536V6.33331H16.2402V13.8867Z" fill="black"/>
<path d="M32.6931 11.7478L30.7464 6.33331H29.1198L27.1598 11.7478L25.3998 6.33331H23.7598L26.3731 13.8867H27.8531L29.9331 8.27665L31.9998 13.8867H33.5064L36.1064 6.33331H34.4664L32.6931 11.7478Z" fill="black"/>
</svg>
