<svg width="21" height="20" viewBox="0 0 21 20" fill="none" xmlns="http://www.w3.org/2000/svg">
<path d="M4.375 0C1.9625 0 0 1.9625 0 4.375C0 6.7875 1.9625 8.75 4.375 8.75C6.7875 8.75 8.75 6.7875 8.75 4.375C8.75 1.9625 6.7875 0 4.375 0ZM4.375 6.25C3.3375 6.25 2.5 5.4125 2.5 4.375C2.5 3.3375 3.3375 2.5 4.375 2.5C5.4125 2.5 6.25 3.3375 6.25 4.375C6.25 5.4125 5.4125 6.25 4.375 6.25ZM15.625 11.25C13.2125 11.25 11.25 13.2125 11.25 15.625C11.25 18.0375 13.2125 20 15.625 20C18.0375 20 20 18.0375 20 15.625C20 13.2125 18.0375 11.25 15.625 11.25ZM15.625 17.5C14.5875 17.5 13.75 16.6625 13.75 15.625C13.75 14.5875 14.5875 13.75 15.625 13.75C16.6625 13.75 17.5 14.5875 17.5 15.625C17.5 16.6625 16.6625 17.5 15.625 17.5ZM1.7625 20L0 18.2375L18.2375 0L20 1.7625L1.7625 20Z" fill="#4A0000"/>
</svg>
