<svg width="29" height="30" viewBox="0 0 29 30" fill="none" xmlns="http://www.w3.org/2000/svg">
<path d="M2.87086 8.90254C2.33828 6.1201 4.81804 3.61446 8.60617 2.69768C9.27859 2.53456 10.0042 2.58074 10.6352 2.82681C11.2661 3.07288 11.7547 3.5003 12.0015 4.02192L13.2162 6.59067C13.4118 7.00402 13.447 7.45424 13.3172 7.88354C13.1875 8.31284 12.8987 8.70162 12.488 8.99998L8.87456 11.6241C8.69635 11.7538 8.56356 11.9178 8.48909 12.1002C8.41463 12.2825 8.40103 12.4771 8.44962 12.6649L8.48177 12.78L8.57123 13.069C8.6509 13.3137 8.77112 13.6569 8.94025 14.0655C9.27574 14.8793 9.81111 15.9732 10.6079 17.0661C11.4046 18.16 12.3328 19.0735 13.0541 19.7112C13.4297 20.0427 13.8224 20.3619 14.2311 20.6679L14.3429 20.7487C14.5235 20.8757 14.7425 20.9634 14.9787 21.0034C15.2148 21.0434 15.46 21.0342 15.6904 20.9768L20.3676 19.8109C20.8988 19.6784 21.4679 19.6747 22.0019 19.8002C22.5359 19.9256 23.0103 20.1746 23.3645 20.5151L25.5773 22.6442C26.4998 23.53 26.3908 24.831 25.3299 25.6138C22.4308 27.7552 18.4441 28.1936 15.6708 26.4276C12.2714 24.2556 9.4056 21.6065 7.21673 18.6129C5.00959 15.6215 3.53515 12.3271 2.87086 8.90254V8.90254ZM11.3781 12.811L14.3778 10.632C15.1988 10.0353 15.7759 9.25783 16.0352 8.39947C16.2945 7.5411 16.224 6.64095 15.833 5.81451L14.6169 3.24576C14.1207 2.19626 13.138 1.33613 11.8689 0.840725C10.5998 0.345317 9.14003 0.251921 7.78704 0.579574C3.08473 1.72112 -0.692222 5.06049 0.107339 9.23471C0.666473 12.1489 1.95667 15.8559 4.79987 19.7267C7.16091 22.9547 10.2517 25.8109 13.9179 28.1527C18.0765 30.8 23.6315 29.8965 27.2365 27.2337C28.2676 26.4722 28.8933 25.4279 28.986 24.3136C29.0788 23.1994 28.6315 22.0991 27.7355 21.237L25.5228 19.1078C24.8145 18.4264 23.8654 17.9282 22.7972 17.677C21.7289 17.4259 20.5903 17.4333 19.5275 17.6983L15.6457 18.666C15.4975 18.5442 15.3242 18.3992 15.1355 18.232C14.3376 17.5329 13.6318 16.7713 13.0289 15.9588C12.442 15.1393 11.962 14.2745 11.5961 13.3779C11.5186 13.1902 11.4459 13.0011 11.3781 12.811V12.811Z" fill="black"/>
</svg>
