<svg width="22" height="25" viewBox="0 0 22 25" fill="none" xmlns="http://www.w3.org/2000/svg">
<path d="M21.0656 11.3924C20.4589 10.2216 19.577 9.17073 18.475 8.30557L17.5656 7.59013C17.5347 7.5665 17.4976 7.54974 17.4574 7.5413C17.4172 7.53287 17.3752 7.53302 17.3351 7.54175C17.295 7.55048 17.258 7.56752 17.2273 7.59137C17.1967 7.61523 17.1734 7.64516 17.1594 7.67855L16.7531 8.67802C16.5 9.30503 16.0344 9.94544 15.375 10.5751C15.3312 10.6153 15.2812 10.626 15.2469 10.6287C15.2125 10.6314 15.1594 10.626 15.1125 10.5885C15.0687 10.5564 15.0469 10.5081 15.05 10.4599C15.1656 8.84683 14.6031 7.02742 13.3719 5.04724C12.3531 3.40201 10.9375 2.11851 9.16874 1.22354L7.87812 0.572412C7.70937 0.486667 7.49374 0.599207 7.50312 0.768018L7.57187 2.0542C7.61874 2.93309 7.49999 3.71015 7.21874 4.35592C6.87499 5.14639 6.38124 5.88058 5.74999 6.53975C5.31069 6.99785 4.81278 7.4122 4.26562 7.77502C2.94783 8.64363 1.87629 9.75663 1.13125 11.0307C0.388043 12.3158 0.000906752 13.7307 0 15.1652C0 16.4299 0.290625 17.6545 0.865624 18.8094C1.42083 19.9213 2.22206 20.9304 3.225 21.781C4.2375 22.6384 5.41249 23.3137 6.72187 23.7826C8.07812 24.2703 9.51562 24.5168 11 24.5168C12.4844 24.5168 13.9219 24.2703 15.2781 23.7853C16.5843 23.3191 17.772 22.6392 18.775 21.7837C19.7875 20.9262 20.5812 19.9241 21.1344 18.812C21.7085 17.6603 22.003 16.4204 22 15.1679C22 13.8603 21.6875 12.5902 21.0656 11.3924V11.3924ZM17.2812 20.4841C15.6031 21.9096 13.375 22.692 11 22.692C8.62499 22.692 6.39687 21.9096 4.71875 20.4841C3.04687 19.0612 2.125 17.1748 2.125 15.1679C2.125 14.0023 2.43125 12.8849 3.03437 11.8452C3.62187 10.8297 4.49687 9.92133 5.55937 9.22197C6.23699 8.77768 6.85159 8.26688 7.39062 7.69999C8.17187 6.88273 8.78437 5.97169 9.20937 4.99365C9.3837 4.59022 9.51037 4.1728 9.58749 3.74767C10.3406 4.34253 10.9719 5.06064 11.5 5.90202C12.5437 7.57941 13.025 9.07191 12.9312 10.342C12.9088 10.6412 12.9658 10.9407 13.0979 11.2183C13.23 11.4958 13.4337 11.7441 13.6937 11.9444C13.9191 12.1189 14.1827 12.2534 14.4692 12.3398C14.7556 12.4263 15.0593 12.4631 15.3625 12.4481C15.9781 12.4213 16.5437 12.1882 16.9562 11.7943C17.3719 11.3951 17.7312 10.9878 18.0312 10.5725C18.4687 11.0521 18.8344 11.5746 19.125 12.1373C19.6219 13.0966 19.875 14.1175 19.875 15.1679C19.875 17.1748 18.9531 19.0639 17.2812 20.4841Z" fill="black"/>
</svg>
