<svg width="21" height="21" viewBox="0 0 21 21" fill="none" xmlns="http://www.w3.org/2000/svg">
<path d="M2.39191 16.3918C2.8993 15.9058 3.39312 15.4059 3.87283 14.8925C4.27583 14.483 4.5185 14.1851 4.5185 14.1851L7.55183 12.7367C6.33742 11.3594 5.66719 9.58632 5.66683 7.75008C5.66683 3.5695 9.0685 0.166748 13.2502 0.166748C17.4318 0.166748 20.8335 3.5695 20.8335 7.75008C20.8335 11.9307 17.4318 15.3334 13.2502 15.3334C11.3402 15.3334 9.59933 14.6184 8.26358 13.4495L6.81516 16.4828C6.81516 16.4828 6.51725 16.7255 6.10775 17.1285C5.6885 17.5217 5.13708 18.0537 4.60841 18.6094L3.13725 20.1174L2.48291 20.8172L0.185163 18.5195L0.884996 17.8652C1.29558 17.4622 1.84374 16.927 2.39191 16.3918V16.3918ZM13.2502 13.1667C16.2369 13.1667 18.6668 10.7368 18.6668 7.75008C18.6668 4.76333 16.2369 2.33341 13.2502 2.33341C10.2634 2.33341 7.8335 4.76333 7.8335 7.75008C7.8335 10.7368 10.2634 13.1667 13.2502 13.1667Z" fill="black"/>
</svg>
