<svg width="38" height="40" viewBox="0 0 38 40" fill="none" xmlns="http://www.w3.org/2000/svg">
<path d="M13.2793 26L24.7993 14" stroke="black" stroke-width="3" stroke-linecap="round" stroke-linejoin="round"/>
<path d="M14.2393 16C14.7695 16 15.1993 15.5523 15.1993 15C15.1993 14.4477 14.7695 14 14.2393 14C13.7091 14 13.2793 14.4477 13.2793 15C13.2793 15.5523 13.7091 16 14.2393 16Z" fill="black" stroke="black" stroke-width="3" stroke-linecap="round" stroke-linejoin="round"/>
<path d="M23.8399 26C24.3701 26 24.7999 25.5523 24.7999 25C24.7999 24.4477 24.3701 24 23.8399 24C23.3097 24 22.8799 24.4477 22.8799 25C22.8799 25.5523 23.3097 26 23.8399 26Z" fill="black" stroke="black" stroke-width="3" stroke-linecap="round" stroke-linejoin="round"/>
<path d="M5.59964 10.4001C5.59964 9.23311 6.04466 8.11396 6.83682 7.2888C7.62897 6.46364 8.70336 6.00007 9.82364 6.00007H11.7436C12.859 5.9994 13.9288 5.53927 14.7196 4.72007L16.0636 3.32007C16.4562 2.90887 16.9229 2.58255 17.4369 2.35988C17.9509 2.13721 18.5021 2.02258 19.0588 2.02258C19.6155 2.02258 20.1667 2.13721 20.6808 2.35988C21.1948 2.58255 21.6615 2.90887 22.054 3.32007L23.398 4.72007C24.1889 5.53927 25.2587 5.9994 26.374 6.00007H28.294C29.4143 6.00007 30.4887 6.46364 31.2809 7.2888C32.073 8.11396 32.518 9.23311 32.518 10.4001V12.4001C32.5187 13.5619 32.9604 14.6762 33.7468 15.5001L35.0908 16.9001C35.4856 17.309 35.7989 17.7951 36.0126 18.3306C36.2264 18.866 36.3364 19.4402 36.3364 20.0201C36.3364 20.6 36.2264 21.1741 36.0126 21.7096C35.7989 22.245 35.4856 22.7312 35.0908 23.1401L33.7468 24.5401C32.9604 25.3639 32.5187 26.4783 32.518 27.6401V29.6401C32.518 30.807 32.073 31.9262 31.2809 32.7513C30.4887 33.5765 29.4143 34.0401 28.294 34.0401H26.374C25.2587 34.0407 24.1889 34.5009 23.398 35.3201L22.054 36.7201C21.6615 37.1313 21.1948 37.4576 20.6808 37.6803C20.1667 37.9029 19.6155 38.0176 19.0588 38.0176C18.5021 38.0176 17.9509 37.9029 17.4369 37.6803C16.9229 37.4576 16.4562 37.1313 16.0636 36.7201L14.7196 35.3201C13.9288 34.5009 12.859 34.0407 11.7436 34.0401H9.82364C8.70336 34.0401 7.62897 33.5765 6.83682 32.7513C6.04466 31.9262 5.59964 30.807 5.59964 29.6401V27.6401C5.599 26.4783 5.15727 25.3639 4.37084 24.5401L3.02684 23.1401C2.63208 22.7312 2.31882 22.245 2.10506 21.7096C1.89129 21.1741 1.78125 20.6 1.78125 20.0201C1.78125 19.4402 1.89129 18.866 2.10506 18.3306C2.31882 17.7951 2.63208 17.309 3.02684 16.9001L4.37084 15.5001C5.15727 14.6762 5.599 13.5619 5.59964 12.4001V10.4001" stroke="black" stroke-width="3" stroke-linecap="round" stroke-linejoin="round"/>
</svg>
