<svg width="61" height="60" viewBox="0 0 61 60" fill="none" xmlns="http://www.w3.org/2000/svg">
<g clip-path="url(#clip0_1_304)">
<path d="M32.3249 25.5937C32.3249 27.6094 31.2311 28.7695 29.304 28.7695H26.7728V22.418H29.3145C31.2311 22.418 32.3249 23.5664 32.3249 25.5937V25.5937ZM37.2728 32.9297C37.2728 33.9023 38.0228 34.5352 39.1999 34.5352C40.6999 34.5352 41.8249 33.4687 41.8249 31.9687V31.0664L39.377 31.2422C37.9915 31.3477 37.2728 31.9219 37.2728 32.9297ZM60.8457 9.25781V50.5078C60.8457 53.6133 58.6061 56.1328 55.8457 56.1328H5.8457C3.08529 56.1328 0.845703 53.6133 0.845703 50.5078V9.25781C0.845703 6.15234 3.08529 3.63281 5.8457 3.63281H55.8457C58.6061 3.63281 60.8457 6.15234 60.8457 9.25781ZM14.1582 23.1094C15.0332 23.1914 15.9082 22.6172 16.4603 21.8906C17.002 21.1406 17.3561 20.1328 17.2624 19.1133C16.4915 19.1484 15.5332 19.6875 14.9811 20.4375C14.4811 21.082 14.054 22.125 14.1582 23.1094V23.1094ZM20.4707 31.8398C20.4499 31.8164 18.429 30.9492 18.4082 28.3242C18.3874 26.1328 20.002 25.0781 20.0749 25.0195C19.1582 23.4961 17.7415 23.332 17.252 23.2969C15.9811 23.2148 14.8978 24.1055 14.2936 24.1055C13.679 24.1055 12.7624 23.332 11.7624 23.3555C10.4603 23.3789 9.24154 24.2109 8.58529 25.5352C7.2207 28.1836 8.23112 32.0977 9.55404 34.2539C10.1999 35.3203 10.9811 36.4922 12.002 36.4453C12.9707 36.3984 13.3561 35.7422 14.5228 35.7422C15.6999 35.7422 16.0332 36.4453 17.054 36.4336C18.1165 36.4102 18.7728 35.3672 19.429 34.3008C20.1478 33.082 20.4499 31.9102 20.4707 31.8398ZM34.5749 25.582C34.5749 22.4648 32.6478 20.332 29.8978 20.332H24.5645V36.3164H26.7728V30.8555H29.8249C32.6165 30.8555 34.5749 28.6992 34.5749 25.582V25.582ZM43.9499 28.3594C43.9499 26.0508 42.304 24.5625 39.7832 24.5625C37.4395 24.5625 35.7103 26.0742 35.6478 28.1367H37.6374C37.804 27.1523 38.6165 26.5078 39.7207 26.5078C41.0749 26.5078 41.8249 27.2109 41.8249 28.5234V29.4023L39.0749 29.5898C36.5124 29.7656 35.127 30.9492 35.127 33C35.127 35.0742 36.554 36.4453 38.6061 36.4453C39.9915 36.4453 41.2728 35.6602 41.8561 34.4063H41.8978V36.3281H43.9395V28.3594H43.9499ZM54.5957 24.7148H52.3561L49.7624 34.1602H49.7207L47.127 24.7148H44.804L48.5436 36.3516L48.3457 37.0547C48.0124 38.25 47.4603 38.7187 46.4811 38.7187C46.304 38.7187 45.9707 38.6953 45.8353 38.6836V40.6055C45.9603 40.6523 46.5124 40.6641 46.679 40.6641C48.8353 40.6641 49.8457 39.7383 50.7311 36.9375L54.5957 24.7148Z" fill="#333333"/>
</g>
<defs>
<clipPath id="clip0_1_304">
<rect width="60" height="60" fill="white" transform="translate(0.845703)"/>
</clipPath>
</defs>
</svg>
