<svg width="60" height="60" viewBox="0 0 60 60" fill="none" xmlns="http://www.w3.org/2000/svg">
<path d="M29.9992 0C21.8448 0 20.8286 0.039375 17.6373 0.174375C14.4329 0.331875 12.2654 0.82875 10.3529 1.57125C8.3513 2.32691 6.53855 3.51003 5.04105 5.03813C3.5087 6.53212 2.32492 8.34587 1.57418 10.35C0.83168 12.2625 0.334805 14.43 0.177305 17.6344C0.0329297 20.8275 0.00292969 21.8419 0.00292969 29.9963C0.00292969 38.1506 0.0423047 39.1669 0.177305 42.3581C0.334805 45.5531 0.83168 47.73 1.57418 49.6425C2.32984 51.6441 3.51296 53.4569 5.04105 54.9544C6.53505 56.4867 8.3488 57.6705 10.3529 58.4213C12.2654 59.1544 14.4423 59.6606 17.6373 59.8181C20.8304 59.9625 21.8448 59.9925 29.9992 59.9925C38.1536 59.9925 39.1698 59.9531 42.3611 59.8181C45.5561 59.6606 47.7329 59.1525 49.6454 58.4213C51.6471 57.6656 53.4598 56.4825 54.9573 54.9544C56.4916 53.462 57.6757 51.6478 58.4242 49.6425C59.1573 47.73 59.6636 45.5531 59.8211 42.3581C59.9654 39.165 59.9954 38.1506 59.9954 29.9963C59.9954 21.8419 59.9561 20.8256 59.8211 17.6344C59.6636 14.4394 59.1554 12.2513 58.4242 10.35C57.6685 8.34837 56.4854 6.53562 54.9573 5.03813C53.4649 3.50379 51.6507 2.31971 49.6454 1.57125C47.7329 0.82875 45.5561 0.331875 42.3611 0.174375C39.1679 0.03 38.1536 0 29.9992 0ZM29.9992 5.4C38.0073 5.4 38.9636 5.43938 42.1286 5.57438C45.0479 5.71125 46.6379 6.19875 47.6936 6.61125C48.9986 7.09298 50.1798 7.85972 51.1511 8.85563C52.1453 9.8228 52.9091 11.0013 53.3861 12.3037C53.7986 13.3594 54.2861 14.9494 54.4229 17.8687C54.5579 21.0337 54.5973 21.9919 54.5973 29.9981C54.5973 38.0044 54.5579 38.9625 54.4117 42.1275C54.2542 45.0469 53.7667 46.6369 53.3561 47.6925C52.7879 49.1006 52.1542 50.085 51.1079 51.15C50.1334 52.1397 48.953 52.9027 47.6504 53.385C46.6079 53.7975 44.9954 54.285 42.0648 54.4219C38.8829 54.5569 37.9454 54.5963 29.9167 54.5963C21.8879 54.5963 20.9523 54.5569 17.7667 54.4106C14.8473 54.2531 13.2367 53.7656 12.1811 53.355C10.7561 52.7869 9.77918 52.1531 8.73293 51.1069C7.6773 50.0512 7.00605 49.0463 6.48855 47.6494C6.06855 46.6069 5.58855 44.9944 5.43293 42.0638C5.32605 38.9194 5.27543 37.9444 5.27543 29.9531C5.27543 21.9656 5.32605 20.9888 5.43293 17.805C5.58855 14.8744 6.06855 13.2656 6.48855 12.2194C7.00605 10.7925 7.67918 9.8175 8.73293 8.76187C9.7773 7.7175 10.7561 7.0425 12.1811 6.51375C13.2367 6.10312 14.8079 5.61563 17.7386 5.46938C20.9204 5.355 21.8579 5.31375 29.8754 5.31375L29.9992 5.4ZM29.9992 14.6006C27.9767 14.5999 25.9739 14.9977 24.1052 15.7713C22.2365 16.545 20.5386 17.6792 19.1085 19.1093C17.6784 20.5395 16.5441 22.2374 15.7705 24.106C14.9969 25.9747 14.5991 27.9775 14.5998 30C14.5991 32.0225 14.9969 34.0253 15.7705 35.894C16.5441 37.7626 17.6784 39.4605 19.1085 40.8907C20.5386 42.3208 22.2365 43.455 24.1052 44.2287C25.9739 45.0023 27.9767 45.4001 29.9992 45.3994C32.0217 45.4001 34.0245 45.0023 35.8931 44.2287C37.7618 43.455 39.4597 42.3208 40.8898 40.8907C42.3199 39.4605 43.4542 37.7626 44.2278 35.894C45.0015 34.0253 45.3993 32.0225 45.3986 30C45.3993 27.9775 45.0015 25.9747 44.2278 24.106C43.4542 22.2374 42.3199 20.5395 40.8898 19.1093C39.4597 17.6792 37.7618 16.545 35.8931 15.7713C34.0245 14.9977 32.0217 14.5999 29.9992 14.6006V14.6006ZM29.9992 39.9994C24.4717 39.9994 19.9998 35.5275 19.9998 30C19.9998 24.4725 24.4717 20.0006 29.9992 20.0006C35.5267 20.0006 39.9986 24.4725 39.9986 30C39.9986 35.5275 35.5267 39.9994 29.9992 39.9994ZM49.6192 13.9856C49.6182 14.9412 49.2379 15.8574 48.5618 16.5328C47.8857 17.2081 46.9692 17.5875 46.0136 17.5875C45.541 17.5875 45.0732 17.4944 44.6366 17.3136C44.2001 17.1328 43.8034 16.8678 43.4693 16.5336C43.1352 16.1995 42.8701 15.8029 42.6893 15.3663C42.5085 14.9298 42.4154 14.4619 42.4154 13.9894C42.4154 13.5169 42.5085 13.049 42.6893 12.6124C42.8701 12.1759 43.1352 11.7792 43.4693 11.4451C43.8034 11.111 44.2001 10.846 44.6366 10.6651C45.0732 10.4843 45.541 10.3912 46.0136 10.3912C47.9954 10.3912 49.6192 12.0038 49.6192 13.9856V13.9856Z" fill="#333333"/>
</svg>
