<svg width="61" height="60" viewBox="0 0 61 60" fill="none" xmlns="http://www.w3.org/2000/svg">
<g clip-path="url(#clip0_1_306)">
<path d="M51.1478 48.082C51.1478 48.8789 50.6686 49.4531 49.9811 49.4531C49.2728 49.4531 48.8145 48.8437 48.8145 48.082C48.8145 47.3203 49.2728 46.7109 49.9811 46.7109C50.6686 46.7109 51.1478 47.3203 51.1478 48.082ZM18.7728 46.7109C18.0332 46.7109 17.6061 47.3203 17.6061 48.082C17.6061 48.8437 18.0332 49.4531 18.7728 49.4531C19.4499 49.4531 19.9082 48.8789 19.9082 48.082C19.8978 47.3203 19.4499 46.7109 18.7728 46.7109ZM31.0124 46.6758C30.4499 46.6758 30.1061 47.0859 30.0228 47.6953H32.0124C31.9186 47.0273 31.554 46.6758 31.0124 46.6758ZM42.2415 46.7109C41.5332 46.7109 41.1061 47.3203 41.1061 48.082C41.1061 48.8437 41.5332 49.4531 42.2415 49.4531C42.9499 49.4531 43.4082 48.8789 43.4082 48.082C43.4082 47.3203 42.9499 46.7109 42.2415 46.7109ZM53.2728 49.7695C53.2728 49.8047 53.304 49.8281 53.304 49.8984C53.304 49.9336 53.2728 49.957 53.2728 50.0273C53.2415 50.0625 53.2415 50.0859 53.2207 50.1211C53.1895 50.1563 53.1686 50.1797 53.1061 50.1797C53.0749 50.2148 53.054 50.2148 52.9915 50.2148C52.9603 50.2148 52.9395 50.2148 52.877 50.1797C52.8457 50.1797 52.8249 50.1445 52.7936 50.1211C52.7624 50.0859 52.7415 50.0625 52.7415 50.0273C52.7103 49.9687 52.7103 49.9336 52.7103 49.8984C52.7103 49.8398 52.7103 49.8047 52.7415 49.7695C52.7415 49.7109 52.7728 49.6758 52.7936 49.6406C52.8249 49.6055 52.8457 49.6055 52.877 49.582C52.929 49.5469 52.9603 49.5469 52.9915 49.5469C53.0436 49.5469 53.0749 49.5469 53.1061 49.582C53.1582 49.6172 53.1895 49.6172 53.2207 49.6406C53.252 49.6641 53.2415 49.7109 53.2728 49.7695ZM53.0436 49.9336C53.0957 49.9336 53.0957 49.8984 53.127 49.8984C53.1582 49.8633 53.1582 49.8398 53.1582 49.8047C53.1582 49.7695 53.1582 49.7461 53.127 49.7109C53.0957 49.7109 53.0749 49.6758 53.0124 49.6758H52.8457V50.0859H52.929V49.9219H52.9603L53.0749 50.0859H53.1582L53.0436 49.9336V49.9336ZM60.8457 9.49219V50.7422C60.8457 53.8477 58.6061 56.3672 55.8457 56.3672H5.8457C3.08529 56.3672 0.845703 53.8477 0.845703 50.7422V9.49219C0.845703 6.38672 3.08529 3.86719 5.8457 3.86719H55.8457C58.6061 3.86719 60.8457 6.38672 60.8457 9.49219ZM7.51237 25.8516C7.51237 34.8164 13.9811 42.082 21.9395 42.082C24.7728 42.082 27.554 41.1211 29.9082 39.375C22.3145 32.4258 22.3665 19.3125 29.9082 12.3633C27.554 10.6055 24.7728 9.65625 21.9395 9.65625C13.9811 9.64453 7.51237 16.9219 7.51237 25.8516ZM30.8457 38.6016C38.1895 32.1562 38.1582 19.5938 30.8457 13.1133C23.5332 19.5938 23.502 32.168 30.8457 38.6016ZM16.0228 47.543C16.0228 46.5234 15.429 45.8555 14.4915 45.8203C14.0124 45.8203 13.502 45.9844 13.1582 46.582C12.9082 46.1016 12.4811 45.8203 11.8874 45.8203C11.4915 45.8203 11.0957 45.9844 10.7832 46.4531V45.9375H9.92904V50.2383H10.7832C10.7832 48.0234 10.5228 46.6992 11.7207 46.6992C12.7832 46.6992 12.5749 47.8945 12.5749 50.2383H13.3978C13.3978 48.0938 13.1374 46.6992 14.3353 46.6992C15.3978 46.6992 15.1895 47.8711 15.1895 50.2383H16.0436V47.543H16.0228ZM20.6999 45.9375H19.877V46.4531C19.5957 46.0664 19.1999 45.8203 18.6582 45.8203C17.5853 45.8203 16.7624 46.7812 16.7624 48.082C16.7624 49.3945 17.5853 50.3438 18.6582 50.3438C19.1999 50.3438 19.5957 50.1211 19.877 49.7109V50.25H20.6999V45.9375ZM24.9186 48.9375C24.9186 47.1797 22.5332 47.9766 22.5332 47.1562C22.5332 46.4883 23.7728 46.5937 24.4603 47.0273L24.804 46.2656C23.8249 45.5508 21.6582 45.5625 21.6582 47.2266C21.6582 48.9023 24.0436 48.1992 24.0436 48.9844C24.0436 49.7227 22.6374 49.6641 21.8874 49.0781L21.5228 49.8164C22.6895 50.707 24.9186 50.5195 24.9186 48.9375V48.9375ZM28.6061 50.0273L28.377 49.2305C27.9811 49.4766 27.1061 49.7461 27.1061 48.75V46.8047H28.4707V45.9375H27.1061V44.625H26.252V45.9375H25.4603V46.793H26.252V48.75C26.252 50.8125 28.054 50.4375 28.6061 50.0273V50.0273ZM29.9915 48.457H32.8561C32.8561 46.5586 32.0853 45.8086 31.0436 45.8086C29.9395 45.8086 29.1478 46.7344 29.1478 48.0703C29.1478 50.4727 31.502 50.8711 32.6686 49.7344L32.2728 49.0312C31.4603 49.7812 30.2311 49.7109 29.9915 48.457V48.457ZM36.1478 45.9375C35.6686 45.7031 34.9395 45.7266 34.5645 46.4531V45.9375H33.7103V50.2383H34.5645V47.8125C34.5645 46.4531 35.554 46.6289 35.8978 46.8281L36.1478 45.9375V45.9375ZM37.252 48.082C37.252 46.7461 38.4603 46.3125 39.4082 47.0977L39.804 46.3359C38.5957 45.2695 36.3978 45.8555 36.3978 48.0937C36.3978 50.4141 38.7311 50.8828 39.804 49.8516L39.4082 49.0898C38.4499 49.8516 37.252 49.3945 37.252 48.082ZM44.1999 45.9375H43.3457V46.4531C42.4811 45.1641 40.2311 45.8906 40.2311 48.082C40.2311 50.332 42.5645 50.9766 43.3457 49.7109V50.25H44.1999V45.9375V45.9375ZM47.7103 45.9375C47.4603 45.7969 46.5645 45.5977 46.127 46.4531V45.9375H45.304V50.2383H46.127V47.8125C46.127 46.5234 47.0645 46.6055 47.4603 46.8281L47.7103 45.9375V45.9375ZM51.9082 44.1914H51.0853V46.4531C50.2311 45.1758 47.9707 45.8555 47.9707 48.082C47.9707 50.3555 50.3145 50.9648 51.0853 49.7109V50.25H51.9082V44.1914ZM52.6999 35.3906V35.9297H52.7832V35.3906H52.9811V35.2969H52.502V35.3906H52.6999V35.3906ZM53.3874 49.8984C53.3874 49.8398 53.3874 49.7695 53.3561 49.7109C53.3249 49.6758 53.304 49.6172 53.2728 49.582C53.2415 49.5469 53.1895 49.5234 53.1582 49.4883C53.1061 49.4883 53.0436 49.4531 52.9915 49.4531C52.9603 49.4531 52.9082 49.4883 52.8457 49.4883C52.7936 49.5234 52.7624 49.5469 52.7311 49.582C52.679 49.6172 52.6478 49.6758 52.6478 49.7109C52.6165 49.7695 52.6165 49.8398 52.6165 49.8984C52.6165 49.9336 52.6165 49.9922 52.6478 50.0625C52.6478 50.0977 52.679 50.1562 52.7311 50.1914C52.7624 50.2266 52.7832 50.25 52.8457 50.2852C52.8978 50.3203 52.9603 50.3203 52.9915 50.3203C53.0436 50.3203 53.1061 50.3203 53.1582 50.2852C53.1895 50.25 53.2415 50.2266 53.2728 50.1914C53.304 50.1562 53.3249 50.0977 53.3561 50.0625C53.3874 49.9922 53.3874 49.9336 53.3874 49.8984ZM53.7207 35.2852H53.5749L53.4082 35.6953L53.2415 35.2852H53.0957V35.918H53.179V35.4375L53.3457 35.8477H53.4603L53.6061 35.4375V35.918H53.7207V35.2852V35.2852ZM54.179 25.8516C54.179 16.9219 47.7103 9.64453 39.752 9.64453C36.9186 9.64453 34.1374 10.6055 31.7832 12.3516C39.2936 19.3008 39.4082 32.4492 31.7832 39.3633C34.1374 41.1211 36.9395 42.0703 39.752 42.0703C47.7103 42.082 54.179 34.8164 54.179 25.8516V25.8516Z" fill="#333333"/>
</g>
<defs>
<clipPath id="clip0_1_306">
<rect width="60" height="60" fill="white" transform="translate(0.845703)"/>
</clipPath>
</defs>
</svg>
