<svg width="61" height="60" viewBox="0 0 61 60" fill="none" xmlns="http://www.w3.org/2000/svg">
<g clip-path="url(#clip0_1_302)">
<path d="M20.252 30.2578C20.252 31.6875 19.2415 32.7773 17.9603 32.7773C17.002 32.7773 16.2936 32.168 16.2936 31.0195C16.2936 29.5898 17.2832 28.4414 18.554 28.4414C19.5228 28.4414 20.252 29.1094 20.252 30.2578ZM9.23112 24.5742H8.74154C8.58529 24.5742 8.42904 24.6914 8.4082 24.8906L7.96029 28.0195L8.81445 27.9844C9.96029 27.9844 10.8457 27.8086 11.054 26.3203C11.2936 24.75 10.4082 24.5742 9.23112 24.5742V24.5742ZM38.8145 24.5742H38.3457C38.1582 24.5742 38.0332 24.6914 38.0124 24.8906L37.5749 28.0195L38.4082 27.9844C39.7624 27.9844 40.6999 27.6328 40.6999 25.875C40.6895 24.6328 39.6999 24.5742 38.8145 24.5742V24.5742ZM60.8457 9.375V50.625C60.8457 53.7305 58.6061 56.25 55.8457 56.25H5.8457C3.08529 56.25 0.845703 53.7305 0.845703 50.625V9.375C0.845703 6.26953 3.08529 3.75 5.8457 3.75H55.8457C58.6061 3.75 60.8457 6.26953 60.8457 9.375ZM14.2103 25.2422C14.2103 22.7812 12.5228 21.9609 10.5957 21.9609H6.42904C6.16862 21.9609 5.9082 22.1953 5.88737 22.5117L4.17904 34.4766C4.14779 34.7109 4.30404 34.9453 4.51237 34.9453H6.49154C6.77279 34.9453 7.0332 34.6055 7.06445 34.2773L7.5332 31.1602C7.63737 30.3164 8.9082 30.6094 9.4082 30.6094C12.3874 30.6094 14.2103 28.6172 14.2103 25.2422V25.2422ZM22.9811 26.2734H21.002C20.6061 26.2734 20.5853 26.918 20.5645 27.2344C19.9603 26.2383 19.0853 26.0625 18.0957 26.0625C15.5436 26.0625 13.5957 28.582 13.5957 31.3594C13.5957 33.6445 14.8665 35.1328 16.8978 35.1328C17.8353 35.1328 19.002 34.5586 19.6582 33.7383C19.6061 33.9141 19.554 34.2891 19.554 34.4648C19.554 34.7344 19.6582 34.9336 19.8874 34.9336H21.679C21.9603 34.9336 22.1999 34.5937 22.252 34.2656L23.3145 26.7305C23.3457 26.5078 23.1895 26.2734 22.9811 26.2734ZM27.1999 37.7461L33.8353 26.8945C33.8874 26.8359 33.8874 26.7773 33.8874 26.6953C33.8874 26.4961 33.7311 26.2852 33.554 26.2852H31.554C31.377 26.2852 31.1895 26.4023 31.0853 26.5781L28.3249 31.1484L27.179 26.7539C27.0957 26.4961 26.8665 26.2852 26.6061 26.2852H24.6582C24.4811 26.2852 24.3249 26.4961 24.3249 26.6953C24.3249 26.8359 26.3561 33.3516 26.5332 33.9727C26.252 34.418 24.3978 37.3242 24.3978 37.6758C24.3978 37.8867 24.554 38.0508 24.7311 38.0508H26.7311C26.9186 38.0391 27.0957 37.9219 27.1999 37.7461V37.7461ZM43.7936 25.2422C43.7936 22.7812 42.1061 21.9609 40.179 21.9609H36.0436C35.7624 21.9609 35.502 22.1953 35.4707 22.5117L33.7832 34.4648C33.7624 34.6992 33.9186 34.9336 34.1165 34.9336H36.252C36.4603 34.9336 36.6165 34.7578 36.6686 34.5586L37.1374 31.1602C37.2415 30.3164 38.5124 30.6094 39.0124 30.6094C41.9707 30.6094 43.7936 28.6172 43.7936 25.2422ZM52.5645 26.2734H50.5853C50.1895 26.2734 50.1686 26.918 50.1374 27.2344C49.5645 26.2383 48.679 26.0625 47.6686 26.0625C45.1165 26.0625 43.1686 28.582 43.1686 31.3594C43.1686 33.6445 44.4395 35.1328 46.4707 35.1328C47.4395 35.1328 48.6061 34.5586 49.2311 33.7383C49.1999 33.9141 49.127 34.2891 49.127 34.4648C49.127 34.7344 49.2311 34.9336 49.4603 34.9336H51.2624C51.5436 34.9336 51.7832 34.5937 51.8353 34.2656L52.8978 26.7305C52.929 26.5078 52.7728 26.2734 52.5645 26.2734V26.2734ZM57.5124 22.3711C57.5124 22.1367 57.3561 21.9609 57.179 21.9609H55.252C55.0957 21.9609 54.9394 22.1016 54.9186 22.2773L53.2311 34.4648L53.1999 34.5234C53.1999 34.7344 53.3561 34.9336 53.5645 34.9336H55.2832C55.5436 34.9336 55.804 34.5937 55.8249 34.2656L57.5124 22.4062V22.3711V22.3711ZM48.1374 28.4414C46.8665 28.4414 45.877 29.5781 45.877 31.0195C45.877 32.1563 46.6061 32.7773 47.5645 32.7773C48.8145 32.7773 49.8249 31.6992 49.8249 30.2578C49.8353 29.1094 49.1061 28.4414 48.1374 28.4414Z" fill="#333333"/>
</g>
<defs>
<clipPath id="clip0_1_302">
<rect width="60" height="60" fill="white" transform="translate(0.845703)"/>
</clipPath>
</defs>
</svg>
