<svg width="60" height="60" viewBox="0 0 60 60" fill="none" xmlns="http://www.w3.org/2000/svg">
<path d="M51.9479 18.7378C51.9719 19.2238 51.9809 19.7158 51.9809 20.2018C51.9809 35.1718 40.5899 52.4278 19.7609 52.4278C13.3619 52.4278 7.4129 50.5528 2.3999 47.3368C5.36503 47.6954 8.37175 47.4661 11.2482 46.662C14.1247 45.858 16.8145 44.4949 19.1639 42.6508C16.8012 42.6061 14.5114 41.8242 12.6148 40.4144C10.7183 39.0047 9.30963 37.0374 8.5859 34.7878C10.2841 35.1054 12.0318 35.0387 13.7009 34.5928C11.1377 34.0731 8.8331 32.6831 7.17754 30.6585C5.52198 28.6339 4.61734 26.0991 4.6169 23.4838V23.3428C6.18949 24.2176 7.9483 24.7041 9.7469 24.7618C7.34652 23.1615 5.64733 20.7056 4.99615 17.8951C4.34497 15.0847 4.79089 12.1316 6.2429 9.63879C9.08627 13.1382 12.634 16.0003 16.6555 18.0393C20.6771 20.0782 25.0826 21.2484 29.5859 21.4738C29.3911 20.6266 29.2934 19.7601 29.2949 18.8908C29.2949 17.4041 29.5878 15.932 30.1568 14.5585C30.7258 13.185 31.5598 11.9371 32.6112 10.886C33.6626 9.83488 34.9108 9.0012 36.2844 8.43254C37.658 7.86388 39.1302 7.5714 40.6169 7.57179C42.1663 7.56927 43.6997 7.88511 45.1219 8.49974C46.5442 9.11437 47.825 10.0147 48.8849 11.1448C51.4203 10.6429 53.8519 9.71365 56.0759 8.39679C55.2301 11.0194 53.4603 13.2455 51.0959 14.6608C53.3407 14.3947 55.533 13.794 57.5999 12.8788C56.0815 15.1541 54.1672 17.1385 51.9479 18.7378V18.7378Z" fill="#333333"/>
</svg>
