<svg width="61" height="60" viewBox="0 0 61 60" fill="none" xmlns="http://www.w3.org/2000/svg">
<g clip-path="url(#clip0_1_300)">
<path d="M49.8145 27.1055C49.8145 27.1055 50.6061 31.4648 50.7832 32.3789H47.304C47.6478 31.3359 48.9707 27.2813 48.9707 27.2813C48.9499 27.3164 49.3145 26.2148 49.5228 25.5352L49.8145 27.1055ZM60.8457 9.375V50.625C60.8457 53.7305 58.6061 56.25 55.8457 56.25H5.8457C3.08529 56.25 0.845703 53.7305 0.845703 50.625V9.375C0.845703 6.26953 3.08529 3.75 5.8457 3.75H55.8457C58.6061 3.75 60.8457 6.26953 60.8457 9.375ZM16.7311 38.8125L23.3145 20.625H18.8874L14.7936 33.0469L14.3457 30.5273L12.8874 22.1602C12.6478 21 11.9082 20.6719 10.9915 20.625H4.25195L4.17904 20.9883C5.82487 21.457 7.29362 22.1367 8.57487 22.9922L12.304 38.8125H16.7311ZM26.5645 38.8359L29.1895 20.625H25.002L22.3874 38.8359H26.5645V38.8359ZM41.1374 32.8828C41.1582 30.8086 40.0332 29.2266 37.627 27.9258C36.1582 27.0938 35.2624 26.5313 35.2624 25.6758C35.2832 24.9023 36.0228 24.1055 37.6686 24.1055C39.0332 24.0703 40.0332 24.4336 40.7832 24.7969L41.1582 24.9961L41.7311 21.0586C40.9082 20.6953 39.5957 20.2852 37.9811 20.2852C33.8457 20.2852 30.9395 22.7695 30.9186 26.3086C30.8874 28.9219 33.002 30.375 34.5853 31.2539C36.1999 32.1445 36.752 32.7305 36.752 33.5156C36.7311 34.7344 35.4395 35.2969 34.2415 35.2969C32.5749 35.2969 31.679 35.0039 30.3145 34.3242L29.7624 34.0312L29.179 38.1211C30.1582 38.625 31.9707 39.0703 33.8457 39.0938C38.2415 39.1055 41.1061 36.6563 41.1374 32.8828ZM55.8457 38.8359L52.4707 20.625H49.2311C48.2311 20.625 47.4707 20.9531 47.0436 22.1367L40.8249 38.8359H45.2207C45.2207 38.8359 45.9395 36.5859 46.0957 36.1055H51.4707C51.5957 36.75 51.9707 38.8359 51.9707 38.8359H55.8457Z" fill="#333333"/>
</g>
<defs>
<clipPath id="clip0_1_300">
<rect width="60" height="60" fill="white" transform="translate(0.845703)"/>
</clipPath>
</defs>
</svg>
