<svg width="60" height="57" viewBox="0 0 60 57" fill="none" xmlns="http://www.w3.org/2000/svg">
<path d="M39.2088 0H20.7912C3.98425 0 0 3.7578 0 19.6095V36.9803C0 52.832 3.98425 56.5898 20.7912 56.5898H39.2088C56.0157 56.5898 60 52.832 60 36.9803V19.6095C60 3.7578 55.9764 0 39.2088 0ZM48.4372 40.3685H44.0817C42.4318 40.3685 41.9237 39.1342 38.9557 36.2977C36.3776 33.9405 35.2358 33.6275 34.6002 33.6275C33.7021 33.6275 33.4471 33.8662 33.4471 35.028V38.7398C33.4471 39.7354 33.1152 40.3332 30.3216 40.3332C25.7017 40.3332 20.5756 37.6983 16.9813 32.7893C11.5609 25.5955 10.0778 20.2072 10.0778 19.0932C10.0778 18.4937 10.3309 17.9331 11.5515 17.9331H15.9164C17.0207 17.9331 17.4407 18.4123 17.8701 19.5264C20.0281 25.4027 23.6224 30.5505 25.1055 30.5505C25.6529 30.5505 25.9061 30.3118 25.9061 28.9943V22.9252C25.7392 20.1259 24.1774 19.8854 24.1774 18.8916C24.1774 18.4123 24.5974 17.9331 25.2705 17.9331H32.1346C33.0627 17.9331 33.404 18.4123 33.404 19.4433V27.6309C33.404 28.5151 33.8239 28.8281 34.0771 28.8281C34.6245 28.8281 35.0933 28.5151 36.1076 27.5566C39.2425 24.2409 41.4887 19.1285 41.4887 19.1285C41.7812 18.5291 42.2893 17.9685 43.3936 17.9685H47.7585C49.0672 17.9685 49.3597 18.6033 49.0672 19.4875C48.5197 21.8819 43.178 28.9925 43.178 28.9925C42.7187 29.7105 42.5424 30.0235 43.178 30.8246C43.6468 31.4241 45.1711 32.6672 46.1854 33.7813C48.051 35.7796 49.4853 37.456 49.8678 38.6161C50.2972 39.7673 49.6634 40.3668 48.4316 40.3668L48.4372 40.3685Z" fill="#333333"/>
</svg>
