<svg width="21" height="19" viewBox="0 0 21 19" fill="none" xmlns="http://www.w3.org/2000/svg">
<path d="M10.2323 5.35421C10.8281 5.04223 11.0208 4.7016 11.0208 4.46515C11.0208 4.2589 10.8781 3.97452 10.4291 3.68962L10.9875 2.81046C11.5796 3.18546 12.0625 3.74848 12.0625 4.46515C12.0625 5.28337 11.439 5.89796 10.7156 6.27712C9.96715 6.66879 8.96871 6.89587 7.89579 6.89587C6.82235 6.89587 5.82444 6.66879 5.076 6.27712C4.35204 5.89796 3.72913 5.28337 3.72913 4.46515C3.72913 3.74848 4.21194 3.18598 4.80413 2.80994L5.36246 3.69015C4.9135 3.974 4.77079 4.2589 4.77079 4.46462C4.77079 4.70108 4.9635 5.04171 5.55933 5.35369C6.13069 5.65317 6.95569 5.85369 7.89579 5.85369C8.8359 5.85369 9.66142 5.65317 10.2323 5.35369V5.35421Z" fill="#4E4D4D"/>
<path fill-rule="evenodd" clip-rule="evenodd" d="M9.97658 9.78281C12.6979 9.14062 14.6667 7.275 14.6667 5.07292C14.6667 2.3401 11.6354 0.125 7.89585 0.125C4.15626 0.125 1.12501 2.3401 1.12501 5.07292C1.12501 6.62292 2.10001 8.00625 3.62658 8.91354C1.29637 10.3 0.234909 12.8286 1.25626 14.5969C2.28803 16.3844 5.05678 16.7177 7.44012 15.3417C9.74897 14.0083 10.8495 11.5594 9.97658 9.78281ZM12.0688 7.73073C13.099 6.97813 13.625 6.02604 13.625 5.07292C13.625 4.11979 13.0985 3.16771 12.0688 2.4151C11.0401 1.66354 9.56824 1.16667 7.89585 1.16667C6.22397 1.16667 4.75158 1.66354 3.72293 2.4151C2.69272 3.16771 2.16668 4.11979 2.16668 5.07292C2.16668 6.02604 2.69324 6.97813 3.72293 7.73073C4.75158 8.48229 6.22345 8.97917 7.89585 8.97917C9.56772 8.97917 11.0401 8.48229 12.0688 7.73073V7.73073ZM4.22397 9.77083C4.41772 9.65937 4.61303 9.56146 4.80835 9.4776C5.37345 9.68958 5.98491 9.84531 6.62866 9.93437L6.5547 10.5833C6.89064 10.6214 7.06512 10.75 7.14012 10.8802C7.22553 11.0281 7.2448 11.2917 7.04012 11.6682C6.84012 12.0349 6.46095 12.4292 5.93439 12.7333C5.40783 13.0375 4.8771 13.1687 4.45887 13.1583C4.03126 13.1479 3.81199 12.9984 3.7271 12.851C3.6521 12.7208 3.6271 12.5057 3.76251 12.1948L2.80678 11.7797C2.58908 12.2812 2.53178 12.8646 2.82501 13.3719C3.15991 13.9526 3.8047 14.1844 4.43335 14.2C5.07189 14.2156 5.79012 14.0193 6.45522 13.6354C7.12033 13.2516 7.64949 12.7276 7.95522 12.1667C8.25574 11.6146 8.3771 10.9401 8.0422 10.3594C7.96974 10.2338 7.87918 10.1195 7.77345 10.0203L7.89585 10.0208C8.22918 10.0208 8.55626 10.0031 8.87658 9.96927C8.91564 10.0229 8.95158 10.0781 8.98439 10.1349C9.30001 10.6807 9.3323 11.413 8.98595 12.2234C8.64012 13.0333 7.93439 13.8536 6.91928 14.4396C5.90366 15.026 4.84064 15.2266 3.96616 15.1219C3.09168 15.0161 2.47345 14.6219 2.15835 14.076C1.84272 13.5297 1.81095 12.7974 2.15678 11.9875C2.50262 11.1776 3.20835 10.3573 4.22345 9.77083H4.22397Z" fill="#4E4D4D"/>
<path d="M17.0605 14.9006C17.012 15.0829 16.8225 15.2969 16.3891 15.425C15.9657 15.55 15.3902 15.5605 14.7735 15.3948C14.1563 15.2297 13.6631 14.9323 13.3589 14.6125C13.0475 14.2855 12.9907 14.0058 13.0397 13.823C13.0824 13.662 13.2308 13.4808 13.5636 13.349L13.1818 12.3802C12.6548 12.5875 12.1891 12.9719 12.0334 13.5537C11.8548 14.2193 12.1548 14.8584 12.6042 15.3308C13.061 15.811 13.7324 16.1943 14.5037 16.4011C15.2745 16.6079 16.0485 16.6115 16.6839 16.424C17.3089 16.2396 17.8886 15.836 18.0667 15.1704C18.223 14.5886 18.0115 14.023 17.6589 13.5797L16.8433 14.2282C17.0667 14.5084 17.1037 14.7396 17.0605 14.9006V14.9006Z" fill="#4E4D4D"/>
<path fill-rule="evenodd" clip-rule="evenodd" d="M20.0026 15.9881C19.4448 18.0704 16.7417 19.1553 13.9651 18.4115C11.1886 17.6678 9.39014 15.3761 9.94795 13.2938C10.5058 11.2115 13.2089 10.1266 15.9855 10.8704C18.762 11.6147 20.5605 13.9058 20.0026 15.9881ZM18.9964 15.7183C18.8214 16.3719 18.2912 16.9464 17.4276 17.2928C16.5636 17.6397 15.4261 17.7251 14.2349 17.4053C13.0427 17.086 12.1 16.4438 11.5256 15.7115C10.9506 14.9792 10.7787 14.2167 10.9542 13.5636C11.1292 12.91 11.6589 12.3355 12.523 11.9891C13.387 11.6423 14.5245 11.5574 15.7157 11.8766C16.9073 12.1959 17.85 12.8381 18.425 13.5704C19 14.3027 19.1714 15.0652 18.9964 15.7183Z" fill="#4E4D4D"/>
<path fill-rule="evenodd" clip-rule="evenodd" d="M16.6641 9.89795C17.9115 10.2323 19.1261 9.74482 19.3766 8.80941C19.6277 7.87399 18.8193 6.8443 17.5719 6.51045C16.3245 6.17607 15.1105 6.66357 14.8594 7.59899C14.6094 8.53441 15.4167 9.56409 16.6641 9.89795V9.89795ZM18.0063 8.86305C18.2683 8.75784 18.349 8.61982 18.3709 8.54013C18.3917 8.45993 18.3912 8.29951 18.2167 8.07763C18.0422 7.85524 17.7297 7.63076 17.3027 7.5167C16.8756 7.40211 16.4922 7.43961 16.2297 7.54534C15.9683 7.65003 15.887 7.78857 15.8657 7.86826C15.8443 7.94847 15.8449 8.10888 16.0193 8.33076C16.1943 8.55316 16.5068 8.77763 16.9339 8.89222C17.361 9.0068 17.7438 8.96878 18.0063 8.86305Z" fill="#4E4D4D"/>
</svg>
