<svg width="25" height="25" viewBox="0 0 25 25" fill="none" xmlns="http://www.w3.org/2000/svg">
<path d="M12.5 0C13.8261 0 15.0979 0.585316 16.0355 1.62718C16.9732 2.66905 17.5 4.08213 17.5 5.55556C17.5 6.56944 17.2625 7.51389 16.825 8.33333H20C21.1875 8.33333 22.1875 9.26389 22.4375 10.5C24.95 21.625 25 21.9167 25 22.2222C25 22.9589 24.7366 23.6655 24.2678 24.1864C23.7989 24.7073 23.163 25 22.5 25H2.5C1.83696 25 1.20107 24.7073 0.732233 24.1864C0.263392 23.6655 0 22.9589 0 22.2222C0 21.9167 0.0500003 21.625 2.5625 10.5C2.8125 9.26389 3.8125 8.33333 5 8.33333H8.175C7.72816 7.49222 7.49489 6.53225 7.5 5.55556C7.5 4.08213 8.02678 2.66905 8.96447 1.62718C9.90215 0.585316 11.1739 0 12.5 0ZM12.5 2.77778C11.837 2.77778 11.2011 3.07044 10.7322 3.59137C10.2634 4.1123 10 4.81884 10 5.55556C10 6.29227 10.2634 6.99881 10.7322 7.51974C11.2011 8.04068 11.837 8.33333 12.5 8.33333C13.163 8.33333 13.7989 8.04068 14.2678 7.51974C14.7366 6.99881 15 6.29227 15 5.55556C15 4.81884 14.7366 4.1123 14.2678 3.59137C13.7989 3.07044 13.163 2.77778 12.5 2.77778Z" fill="#333333"/>
</svg>
