<svg width="19" height="24" viewBox="0 0 19 24" fill="none" xmlns="http://www.w3.org/2000/svg">
<path d="M5.69611 7.70369L5.69402 7.70474L5.6909 7.70682L5.69611 7.70369ZM16.0649 7.5089C15.9924 7.43899 15.912 7.37781 15.8253 7.32661C15.7025 7.25434 15.5662 7.20801 15.4249 7.1905C15.2835 7.17298 15.14 7.18465 15.0034 7.22477C14.8667 7.2649 14.7397 7.33263 14.6302 7.42379C14.5208 7.51494 14.4311 7.62758 14.3669 7.75474C14.0082 8.46195 13.5133 9.09135 12.9107 9.60682C13.0031 9.0876 13.0498 8.56128 13.0503 8.0339C13.0523 6.42988 12.6292 4.85398 11.8241 3.46664C11.019 2.0793 9.86061 0.930082 8.46694 0.135986C8.31336 0.0487244 8.14012 0.00194987 7.96349 5.96568e-05C7.78686 -0.00183055 7.61265 0.0412257 7.45724 0.125181C7.30183 0.209136 7.17032 0.331232 7.07508 0.479992C6.97983 0.628751 6.92398 0.799288 6.91277 0.975569C6.85445 1.96317 6.59625 2.92866 6.15381 3.81354C5.71137 4.69842 5.09391 5.48427 4.33881 6.12349L4.09923 6.31828C3.30925 6.84978 2.61002 7.50505 2.0284 8.2589C1.12452 9.39756 0.498387 10.7312 0.199665 12.154C-0.099057 13.5767 -0.062152 15.0495 0.307453 16.4556C0.677058 17.8616 1.3692 19.1622 2.32897 20.2542C3.28874 21.3461 4.48975 22.1994 5.83673 22.7464C5.99488 22.8108 6.16642 22.8353 6.33626 22.8178C6.5061 22.8003 6.66904 22.7413 6.81072 22.646C6.95241 22.5507 7.0685 22.4221 7.14878 22.2714C7.22906 22.1207 7.27107 21.9526 7.27111 21.7818C7.27024 21.6715 7.25268 21.5619 7.21902 21.4568C6.98596 20.5808 6.91884 19.669 7.02111 18.7683C8.00702 20.6272 9.58938 22.1006 11.5138 22.9516C11.7486 23.0566 12.014 23.0707 12.2586 22.9912C13.7789 22.5004 15.1484 21.6291 16.2372 20.46C17.3259 19.2908 18.0976 17.8628 18.479 16.3114C18.8604 14.7601 18.8388 13.137 18.4162 11.5963C17.9937 10.0557 17.1843 8.64864 16.0649 7.5089V7.5089ZM11.9971 20.8745C11.0891 20.4144 10.2881 19.7684 9.64613 18.9784C9.00418 18.1883 8.53569 17.2721 8.27111 16.2891C8.19022 15.9581 8.12762 15.6229 8.08361 15.2849C8.05397 15.0698 7.9578 14.8692 7.80857 14.7114C7.65933 14.5536 7.4645 14.4464 7.25132 14.4047C7.18577 14.392 7.11913 14.3857 7.05236 14.386C6.86933 14.3858 6.68949 14.4339 6.53095 14.5253C6.3724 14.6167 6.24074 14.7483 6.14923 14.9068C5.28511 16.3977 4.85066 18.0987 4.89402 19.8214C4.13377 19.2305 3.49837 18.4945 3.02466 17.6562C2.55096 16.8179 2.24836 15.8938 2.13441 14.9377C2.02047 13.9816 2.09744 13.0123 2.36087 12.0861C2.62429 11.16 3.06894 10.2953 3.66902 9.54224C4.12467 8.9504 4.67433 8.43734 5.29611 8.02349C5.32332 8.00603 5.34941 7.9869 5.37423 7.96619C5.37423 7.96619 5.68256 7.71099 5.69298 7.70578C7.17756 6.45062 8.23357 4.76356 8.71382 2.87974C9.84864 3.92908 10.6052 5.32376 10.8661 6.8472C11.127 8.37064 10.8775 9.9376 10.1565 11.3047C10.0611 11.4872 10.0219 11.6939 10.0439 11.8986C10.0659 12.1034 10.148 12.297 10.28 12.4551C10.412 12.6131 10.5879 12.7285 10.7854 12.7867C10.9829 12.8448 11.1933 12.8432 11.3899 12.7818C12.9854 12.2814 14.3894 11.3043 15.4128 9.98182C16.0281 10.8904 16.4304 11.9261 16.5897 13.0118C16.749 14.0975 16.6613 15.2052 16.3329 16.2522C16.0046 17.2993 15.4442 18.2587 14.6935 19.0591C13.9428 19.8594 13.0211 20.48 11.9971 20.8745V20.8745Z" fill="#656565"/>
</svg>
