<svg width="21" height="17" viewBox="0 0 21 17" fill="none" xmlns="http://www.w3.org/2000/svg">
<path d="M18.2709 6.4167C18.1681 6.56855 18.1072 6.74483 18.0944 6.92774C18.0816 7.11064 18.1173 7.29368 18.1979 7.45837C18.4565 8.06177 18.6384 8.69517 18.7396 9.34378C19.0077 11.021 18.757 12.7401 18.0209 14.2709C17.9315 14.4388 17.7978 14.579 17.6344 14.6763C17.4709 14.7736 17.284 14.8243 17.0938 14.823H3.91669C3.72541 14.8233 3.53771 14.7711 3.37418 14.6718C3.21065 14.5726 3.07759 14.4303 2.9896 14.2605C2.32281 12.9078 2.03558 11.3995 2.15855 9.89646C2.28151 8.39339 2.81004 6.95186 3.68781 5.72555C4.56559 4.49924 5.75968 3.53411 7.14282 2.93305C8.52595 2.33199 10.0463 2.11753 11.5417 2.31253C12.2983 2.40147 13.0384 2.59789 13.7396 2.89587C13.9043 2.97646 14.0873 3.01216 14.2702 2.99936C14.4531 2.98656 14.6294 2.9257 14.7813 2.82295C14.9395 2.71873 15.0663 2.57333 15.148 2.4024C15.2297 2.23148 15.2633 2.04151 15.245 1.85294C15.2268 1.66436 15.1575 1.48432 15.0446 1.3322C14.9317 1.18008 14.7794 1.06164 14.6042 0.989618C12.5919 0.12676 10.3589 -0.0800828 8.22232 0.39847C6.08577 0.877022 4.15434 2.01664 2.70237 3.65543C1.2504 5.29423 0.35174 7.34887 0.134031 9.52751C-0.0836784 11.7061 0.390638 13.898 1.4896 15.7917C1.67139 16.1066 1.93241 16.3684 2.24672 16.5511C2.56103 16.7339 2.9177 16.8312 3.28127 16.8334H17.7084C18.0755 16.8348 18.4364 16.7393 18.7547 16.5563C19.073 16.3734 19.3373 16.1096 19.5209 15.7917C20.3254 14.3974 20.7959 12.8355 20.8953 11.2288C20.9947 9.62207 20.7203 8.01415 20.0938 6.53128C20.0144 6.36228 19.8911 6.21772 19.7367 6.11272C19.5823 6.00771 19.4026 5.94613 19.2162 5.93442C19.0299 5.92271 18.8438 5.96129 18.6775 6.04614C18.5112 6.13098 18.3707 6.25897 18.2709 6.4167Z" fill="#656565"/>
<path d="M9.03125 9.11458C8.64033 9.5055 8.42072 10.0357 8.42072 10.5885C8.42072 10.8623 8.47463 11.1333 8.57939 11.3862C8.68414 11.6391 8.83769 11.8689 9.03125 12.0625C9.22481 12.2561 9.4546 12.4096 9.70751 12.5144C9.96041 12.6191 10.2315 12.673 10.5052 12.673C11.058 12.673 11.5882 12.4534 11.9792 12.0625L17.875 3.21875L9.03125 9.11458Z" fill="#656565"/>
</svg>
