<svg width="15" height="20" viewBox="0 0 15 20" fill="none" xmlns="http://www.w3.org/2000/svg">
<path d="M7.5 16.75V15.1875C8.10408 15.1353 8.67037 14.8716 9.09911 14.4429C9.52785 14.0141 9.79155 13.4478 9.84375 12.8438H11.4062C11.3557 13.8634 10.928 14.8279 10.2061 15.5498C9.48417 16.2717 8.51968 16.6995 7.5 16.75V16.75Z" fill="#4E4D4D"/>
<path d="M7.5 19.875C5.63589 19.8727 3.84879 19.1312 2.53067 17.8131C1.21254 16.4949 0.471024 14.7078 0.46875 12.8437C0.510798 11.4732 0.913386 10.138 1.63594 8.97265L6.83828 0.685146C6.91342 0.579684 7.01268 0.49371 7.12779 0.434388C7.24289 0.375067 7.37051 0.344116 7.5 0.344116C7.62949 0.344116 7.75711 0.375067 7.87221 0.434388C7.98732 0.49371 8.08658 0.579684 8.16172 0.685146L13.3414 8.93202C14.0761 10.1082 14.4866 11.4577 14.5312 12.8437C14.529 14.7078 13.7875 16.4949 12.4693 17.8131C11.1512 19.1312 9.36411 19.8727 7.5 19.875V19.875ZM7.5 2.56874L2.98281 9.76249C2.40078 10.6883 2.0726 11.751 2.03125 12.8437C2.03125 14.2941 2.60742 15.6851 3.63301 16.7107C4.6586 17.7363 6.0496 18.3125 7.5 18.3125C8.9504 18.3125 10.3414 17.7363 11.367 16.7107C12.3926 15.6851 12.9688 14.2941 12.9688 12.8437C12.9242 11.7357 12.5878 10.659 11.9938 9.72265L7.5 2.56874Z" fill="#4E4D4D"/>
</svg>
